# xmcd
#
# Track frame offsets:
#	182
#	29338
#	72165
#	91281
#	130878
#	162898
#	187196
#	216886
#	246132
#	267646
#
# Disc length: 4019 seconds
#
# Revision: 0
# Processed by: cddbd v1.5.1PL0 Copyright (c) Steve Scherf et al.
# Submitted via: dBpowerAMP V4.0
#
DISCID=930fb10a
DTITLE=Blues at Midnight - Live At The Attic
DYEAR=1997
DGENRE=Blues
TTITLE0=Mean Old World
TTITLE1=Merry Christmas Baby
TTITLE2=Wang Dang Doodle
TTITLE3=How Blue Can You Get
TTITLE4=Down the Road I Go
TTITLE5=Think
TTITLE6=Blues At Midnight
TTITLE7=It Hurts Me Too
TTITLE8=Hip Shakin Mama
TTITLE9=Damn Good Mojo
EXTD=
EXTT0=
EXTT1=
EXTT2=
EXTT3=
EXTT4=
EXTT5=
EXTT6=
EXTT7=
EXTT8=
EXTT9=
PLAYORDER=
